#N canvas -89 89 1366 407 10;
#X obj 55 142 gemwin;
#X msg 124 65 create;
#X msg 208 37 destroy;
#X msg 200 69 1;
#X msg 240 71 0;
#X obj 271 144 tgl 15 0 empty empty empty 17 7 0 10 -262144 -1 -1 0
206;
#X obj 109 -2 loadbang;
#X msg 16 74 dimen 1280 720;
#N canvas 294 144 702 528 sun 0;
#X obj 76 127 pix_texture;
#X obj 46 -3 inlet;
#N canvas 461 46 450 300 makeSphere 0;
#X obj 69 247 sphere;
#X obj 125 160 translateXYZ;
#X floatatom 182 99 5 0 0 0 - - -;
#X floatatom 231 100 5 0 0 0 - - -;
#X floatatom 278 100 5 0 0 0 - - -;
#X floatatom 174 221 5 0 0 0 - - -;
#X msg 264 185 20;
#X obj 23 29 inlet;
#X obj 319 153 loadbang;
#X obj 391 80 inlet;
#X connect 1 0 0 0;
#X connect 2 0 1 1;
#X connect 3 0 1 2;
#X connect 4 0 1 3;
#X connect 5 0 0 2;
#X connect 6 0 5 0;
#X connect 7 0 1 0;
#X connect 8 0 6 0;
#X connect 9 0 0 1;
#X restore 81 508 pd makeSphere;
#X obj 80 306 rotate;
#X floatatom 202 251 5 0 0 0 - - -;
#X msg 200 284 1 0 0;
#X obj 80 368 rotate;
#X floatatom 204 325 5 0 0 0 - - -;
#X msg 200 359 0 1 0;
#X obj 80 417 rotate;
#X floatatom 195 394 5 0 0 0 - - -;
#X msg 195 417 0 0 1;
#X obj 77 175 translateXYZ;
#X floatatom 220 134 5 0 0 0 - - -;
#X floatatom 222 164 5 0 0 0 - - -;
#X floatatom 223 195 5 0 0 0 - - -;
#X obj 75 83 pix_image planets/sun.jpg;
#X msg 330 436 1;
#X connect 0 0 12 0;
#X connect 1 0 16 0;
#X connect 3 0 6 0;
#X connect 4 0 3 1;
#X connect 5 0 3 2;
#X connect 6 0 9 0;
#X connect 7 0 6 1;
#X connect 8 0 6 2;
#X connect 9 0 2 0;
#X connect 10 0 9 1;
#X connect 11 0 9 2;
#X connect 12 0 3 0;
#X connect 13 0 12 1;
#X connect 14 0 12 2;
#X connect 15 0 12 3;
#X connect 16 0 0 0;
#X connect 17 0 2 1;
#X restore 161 315 pd sun;
#X obj 165 162 tgl 15 0 empty empty empty 17 7 0 10 -262144 -1 -1 0
206;
#N canvas 0 47 843 494 mars 0;
#X obj 76 127 pix_texture;
#X obj 46 -3 inlet;
#N canvas 461 46 450 300 makeSphere 0;
#X obj 69 247 sphere;
#X obj 125 160 translateXYZ;
#X floatatom 182 99 5 0 0 0 - - -;
#X floatatom 231 100 5 0 0 0 - - -;
#X floatatom 278 100 5 0 0 0 - - -;
#X floatatom 174 221 5 0 0 0 - - -;
#X msg 264 185 20;
#X obj 23 29 inlet;
#X obj 319 153 loadbang;
#X obj 391 80 inlet;
#X connect 1 0 0 0;
#X connect 2 0 1 1;
#X connect 3 0 1 2;
#X connect 4 0 1 3;
#X connect 5 0 0 2;
#X connect 6 0 5 0;
#X connect 7 0 1 0;
#X connect 8 0 6 0;
#X connect 9 0 0 1;
#X restore 81 508 pd makeSphere;
#X obj 80 306 rotate;
#X floatatom 202 251 5 0 0 0 - - -;
#X msg 200 284 1 0 0;
#X obj 80 368 rotate;
#X floatatom 204 325 5 0 0 0 - - -;
#X msg 200 359 0 1 0;
#X obj 80 417 rotate;
#X floatatom 195 394 5 0 0 0 - - -;
#X msg 195 417 0 0 1;
#X obj 77 175 translateXYZ;
#X floatatom 220 134 5 0 0 0 - - -;
#X floatatom 222 164 5 0 0 0 - - -;
#X floatatom 223 195 5 0 0 0 - - -;
#X msg 300 430 0.4;
#N canvas 668 197 450 300 ellipse 0;
#X obj 66 44 inlet;
#X obj 77 209 outlet;
#X obj 169 211 outlet;
#X obj 180 45 inlet;
#X obj 125 46 inlet;
#X text 75 21 t:(0-2pi);
#X text 151 23 a;
#X text 197 23 b;
#X obj 83 155 *;
#X obj 56 83 cos;
#X obj 150 88 sin;
#X obj 173 133 *;
#X text 9 8 Implements ellipse coordinates using it paremetric equation
;
#X floatatom 7 177 5 0 0 0 - - -;
#X floatatom 207 169 5 0 0 0 - - -;
#X connect 0 0 9 0;
#X connect 0 0 10 0;
#X connect 3 0 11 1;
#X connect 4 0 8 1;
#X connect 8 0 1 0;
#X connect 8 0 13 0;
#X connect 9 0 8 0;
#X connect 10 0 11 0;
#X connect 11 0 2 0;
#X connect 11 0 14 0;
#X restore 472 218 pd ellipse;
#X floatatom 369 159 5 0 0 0 - - -;
#X obj 395 123 f;
#X obj 343 67 tgl 15 0 empty empty empty 17 7 0 10 -262144 -1 -1 1
1;
#X msg 322 113 0;
#X obj 443 123 + 0.01;
#X obj 379 92 metro 10;
#X obj 75 83 pix_image planets/mars.jpg;
#X msg 249 432 0.53;
#X obj 263 469 *;
#X floatatom 197 489 5 0 0 0 - - -;
#X obj 278 369 loadbang;
#X obj 490 144 *;
#X obj 533 145 *;
#X obj 232 57 trigger b;
#X obj 97 47 spigot;
#X msg 223 -2 0;
#X msg 271 2 1;
#X floatatom 196 21 5 0 0 0 - - -;
#X msg 373 31 0;
#X obj 459 16 inlet;
#X obj 486 33 loadbang;
#X obj 148 67 print;
#X msg 589 90 1.2;
#X msg 263 254 -90;
#X msg 261 313 180;
#X obj 329 254 loadbang;
#X floatatom 413 375 5 0 0 0 - - -;
#X obj 439 339 f;
#X msg 366 329 0;
#X obj 423 308 metro 10;
#X obj 487 339 + 1;
#X msg 493 112 6;
#X msg 534 112 3;
#X connect 0 0 12 0;
#X connect 1 0 24 0;
#X connect 1 0 32 0;
#X connect 3 0 6 0;
#X connect 4 0 3 1;
#X connect 5 0 3 2;
#X connect 6 0 9 0;
#X connect 7 0 6 1;
#X connect 8 0 6 2;
#X connect 9 0 2 0;
#X connect 10 0 9 1;
#X connect 11 0 9 2;
#X connect 12 0 3 0;
#X connect 13 0 12 1;
#X connect 14 0 12 2;
#X connect 15 0 12 3;
#X connect 16 0 26 1;
#X connect 17 0 13 0;
#X connect 17 1 15 0;
#X connect 18 0 17 0;
#X connect 19 0 18 0;
#X connect 19 0 22 0;
#X connect 20 0 21 0;
#X connect 20 0 23 0;
#X connect 20 0 46 0;
#X connect 20 0 47 0;
#X connect 21 0 19 0;
#X connect 22 0 19 1;
#X connect 23 0 19 0;
#X connect 24 0 0 0;
#X connect 25 0 26 0;
#X connect 26 0 27 0;
#X connect 27 0 2 1;
#X connect 28 0 16 0;
#X connect 28 0 25 0;
#X connect 29 0 17 1;
#X connect 30 0 17 2;
#X connect 31 0 20 0;
#X connect 32 0 31 0;
#X connect 32 0 33 0;
#X connect 32 0 39 0;
#X connect 33 0 35 0;
#X connect 34 0 35 0;
#X connect 35 0 32 1;
#X connect 36 0 20 0;
#X connect 37 0 36 0;
#X connect 37 0 34 0;
#X connect 38 0 40 0;
#X connect 38 0 50 0;
#X connect 38 0 49 0;
#X connect 38 0 34 0;
#X connect 40 0 29 1;
#X connect 40 0 30 1;
#X connect 41 0 4 0;
#X connect 42 0 7 0;
#X connect 43 0 41 0;
#X connect 43 0 5 0;
#X connect 43 0 42 0;
#X connect 43 0 8 0;
#X connect 43 0 11 0;
#X connect 44 0 10 0;
#X connect 45 0 44 0;
#X connect 45 0 48 0;
#X connect 46 0 45 0;
#X connect 47 0 45 0;
#X connect 48 0 45 1;
#X connect 49 0 29 0;
#X connect 50 0 30 0;
#X restore 326 315 pd mars;
#X obj 217 162 tgl 15 0 empty empty empty 17 7 0 10 -262144 -1 -1 0
206;
#X obj 218 115 tgl 15 0 empty empty empty 17 7 0 10 -262144 -1 -1 0
206;
#X obj 165 197 gemhead;
#X obj 257 188 gemhead;
#X obj 378 181 gemhead;
#X obj 204 284 translate;
#X obj 28 205 loadbang;
#X msg 91 249 1;
#X obj 20 289 s vect;
#X obj 96 288 s scal;
#X obj 260 233 r vect;
#X obj 392 253 r vect;
#X obj 326 283 translate;
#X obj 466 256 translate;
#X obj 504 223 r vect;
#X obj 209 247 r scal;
#X obj 346 248 r scal;
#X obj 463 203 r scal;
#X obj 417 286 bng 15 250 50 0 empty empty empty 17 7 0 10 -262144
-1 -1;
#X obj 563 250 bng 15 250 50 0 empty empty empty 17 7 0 10 -262144
-1 -1;
#X obj 546 38 bng 15 250 50 0 empty empty empty 17 7 0 10 -262144 -1
-1;
#N canvas 495 76 769 456 earth 0;
#X obj 76 127 pix_texture;
#X obj 46 -3 inlet;
#N canvas 461 46 450 300 makeSphere 0;
#X obj 69 247 sphere;
#X obj 125 160 translateXYZ;
#X floatatom 182 99 5 0 0 0 - - -;
#X floatatom 231 100 5 0 0 0 - - -;
#X floatatom 278 100 5 0 0 0 - - -;
#X floatatom 174 221 5 0 0 0 - - -;
#X msg 264 185 20;
#X obj 23 29 inlet;
#X obj 319 153 loadbang;
#X obj 391 80 inlet;
#X connect 1 0 0 0;
#X connect 2 0 1 1;
#X connect 3 0 1 2;
#X connect 4 0 1 3;
#X connect 5 0 0 2;
#X connect 6 0 5 0;
#X connect 7 0 1 0;
#X connect 8 0 6 0;
#X connect 9 0 0 1;
#X restore 81 508 pd makeSphere;
#X obj 80 306 rotate;
#X floatatom 202 251 5 0 0 0 - - -;
#X msg 200 284 1 0 0;
#X obj 80 368 rotate;
#X floatatom 204 325 5 0 0 0 - - -;
#X msg 200 359 0 1 0;
#X obj 80 417 rotate;
#X floatatom 195 394 5 0 0 0 - - -;
#X msg 195 417 0 0 1;
#X obj 77 175 translateXYZ;
#X floatatom 220 134 5 0 0 0 - - -;
#X floatatom 222 164 5 0 0 0 - - -;
#X floatatom 223 195 5 0 0 0 - - -;
#X msg 300 430 0.4;
#X obj 488 45 loadbang;
#N canvas 668 197 450 300 ellipse 0;
#X obj 66 44 inlet;
#X obj 77 209 outlet;
#X obj 169 211 outlet;
#X obj 180 45 inlet;
#X obj 125 46 inlet;
#X text 75 21 t:(0-2pi);
#X text 151 23 a;
#X text 197 23 b;
#X obj 83 155 *;
#X obj 56 83 cos;
#X obj 150 88 sin;
#X obj 173 133 *;
#X text 9 8 Implements ellipse coordinates using it paremetric equation
;
#X floatatom 7 177 5 0 0 0 - - -;
#X floatatom 207 169 5 0 0 0 - - -;
#X connect 0 0 9 0;
#X connect 0 0 10 0;
#X connect 3 0 11 1;
#X connect 4 0 8 1;
#X connect 8 0 1 0;
#X connect 8 0 13 0;
#X connect 9 0 8 0;
#X connect 10 0 11 0;
#X connect 11 0 2 0;
#X connect 11 0 14 0;
#X restore 472 218 pd ellipse;
#X floatatom 369 159 5 0 0 0 - - -;
#X obj 395 123 f;
#X obj 343 67 tgl 15 0 empty empty empty 17 7 0 10 -262144 -1 -1 1
1;
#X msg 322 113 0;
#X obj 443 123 + 0.01;
#X obj 379 92 metro 10;
#X obj 263 469 *;
#X floatatom 197 489 5 0 0 0 - - -;
#X obj 278 369 loadbang;
#X obj 490 144 *;
#X obj 533 145 *;
#X obj 232 57 trigger b;
#X obj 97 47 spigot;
#X msg 223 -2 0;
#X msg 271 2 1;
#X floatatom 196 21 5 0 0 0 - - -;
#X msg 384 47 0;
#X obj 449 15 inlet;
#X obj 359 -4 loadbang;
#X obj 75 83 pix_image planets/earth.jpg;
#X msg 589 90 1;
#X msg 249 432 1;
#X floatatom 416 365 5 0 0 0 - - -;
#X obj 442 329 f;
#X msg 369 319 0;
#X obj 426 298 metro 10;
#X obj 490 329 + 1;
#X msg 274 236 -90;
#X obj 326 257 loadbang;
#X msg 263 292 180;
#X msg 493 112 6;
#X msg 534 112 3;
#X connect 0 0 12 0;
#X connect 1 0 31 0;
#X connect 1 0 38 0;
#X connect 3 0 6 0;
#X connect 4 0 3 1;
#X connect 5 0 3 2;
#X connect 6 0 9 0;
#X connect 7 0 6 1;
#X connect 8 0 6 2;
#X connect 9 0 2 0;
#X connect 10 0 9 1;
#X connect 11 0 9 2;
#X connect 12 0 3 0;
#X connect 13 0 12 1;
#X connect 14 0 12 2;
#X connect 15 0 12 3;
#X connect 16 0 25 1;
#X connect 17 0 39 0;
#X connect 17 0 50 0;
#X connect 17 0 49 0;
#X connect 17 0 33 0;
#X connect 18 0 13 0;
#X connect 18 1 15 0;
#X connect 19 0 18 0;
#X connect 20 0 19 0;
#X connect 20 0 23 0;
#X connect 21 0 22 0;
#X connect 21 0 24 0;
#X connect 21 0 43 0;
#X connect 21 0 44 0;
#X connect 22 0 20 0;
#X connect 23 0 20 1;
#X connect 24 0 20 0;
#X connect 25 0 26 0;
#X connect 26 0 2 1;
#X connect 27 0 16 0;
#X connect 27 0 40 0;
#X connect 28 0 18 1;
#X connect 29 0 18 2;
#X connect 30 0 21 0;
#X connect 31 0 30 0;
#X connect 31 0 32 0;
#X connect 32 0 34 0;
#X connect 33 0 34 0;
#X connect 34 0 31 1;
#X connect 35 0 21 0;
#X connect 36 0 35 0;
#X connect 36 0 33 0;
#X connect 37 0 33 0;
#X connect 38 0 0 0;
#X connect 39 0 28 1;
#X connect 39 0 29 1;
#X connect 40 0 25 0;
#X connect 41 0 10 0;
#X connect 42 0 41 0;
#X connect 42 0 45 0;
#X connect 43 0 42 0;
#X connect 44 0 42 0;
#X connect 45 0 42 1;
#X connect 46 0 4 0;
#X connect 47 0 46 0;
#X connect 47 0 48 0;
#X connect 47 0 5 0;
#X connect 47 0 8 0;
#X connect 47 0 11 0;
#X connect 48 0 7 0;
#X connect 49 0 28 0;
#X connect 50 0 29 0;
#X restore 453 341 pd earth;
#X obj 308 82 loadbang;
#X msg 305 117 0;
#N canvas 495 76 769 456 pluto 0;
#X obj 76 127 pix_texture;
#X obj 46 -3 inlet;
#N canvas 461 46 450 300 makeSphere 0;
#X obj 69 247 sphere;
#X obj 125 160 translateXYZ;
#X floatatom 182 99 5 0 0 0 - - -;
#X floatatom 231 100 5 0 0 0 - - -;
#X floatatom 278 100 5 0 0 0 - - -;
#X floatatom 174 221 5 0 0 0 - - -;
#X msg 264 185 20;
#X obj 23 29 inlet;
#X obj 319 153 loadbang;
#X obj 391 80 inlet;
#X connect 1 0 0 0;
#X connect 2 0 1 1;
#X connect 3 0 1 2;
#X connect 4 0 1 3;
#X connect 5 0 0 2;
#X connect 6 0 5 0;
#X connect 7 0 1 0;
#X connect 8 0 6 0;
#X connect 9 0 0 1;
#X restore 81 508 pd makeSphere;
#X obj 80 306 rotate;
#X floatatom 202 251 5 0 0 0 - - -;
#X msg 200 284 1 0 0;
#X obj 80 368 rotate;
#X floatatom 204 325 5 0 0 0 - - -;
#X msg 200 359 0 1 0;
#X obj 80 417 rotate;
#X floatatom 195 394 5 0 0 0 - - -;
#X msg 195 417 0 0 1;
#X obj 77 175 translateXYZ;
#X floatatom 220 134 5 0 0 0 - - -;
#X floatatom 222 164 5 0 0 0 - - -;
#X floatatom 223 195 5 0 0 0 - - -;
#X msg 300 430 0.4;
#X obj 488 45 loadbang;
#N canvas 668 197 450 300 ellipse 0;
#X obj 66 44 inlet;
#X obj 77 209 outlet;
#X obj 169 211 outlet;
#X obj 180 45 inlet;
#X obj 125 46 inlet;
#X text 75 21 t:(0-2pi);
#X text 151 23 a;
#X text 197 23 b;
#X obj 83 155 *;
#X obj 56 83 cos;
#X obj 150 88 sin;
#X obj 173 133 *;
#X text 9 8 Implements ellipse coordinates using it paremetric equation
;
#X floatatom 7 177 5 0 0 0 - - -;
#X floatatom 207 169 5 0 0 0 - - -;
#X connect 0 0 9 0;
#X connect 0 0 10 0;
#X connect 3 0 11 1;
#X connect 4 0 8 1;
#X connect 8 0 1 0;
#X connect 8 0 13 0;
#X connect 9 0 8 0;
#X connect 10 0 11 0;
#X connect 11 0 2 0;
#X connect 11 0 14 0;
#X restore 472 218 pd ellipse;
#X floatatom 369 159 5 0 0 0 - - -;
#X obj 395 123 f;
#X obj 343 67 tgl 15 0 empty empty empty 17 7 0 10 -262144 -1 -1 0
1;
#X msg 322 113 0;
#X obj 443 123 + 0.01;
#X obj 379 92 metro 10;
#X obj 263 469 *;
#X floatatom 197 489 5 0 0 0 - - -;
#X obj 278 369 loadbang;
#X obj 490 144 *;
#X obj 533 145 *;
#X obj 232 57 trigger b;
#X obj 97 47 spigot;
#X msg 223 -2 0;
#X msg 271 2 1;
#X floatatom 196 21 5 0 0 0 - - -;
#X msg 384 47 0;
#X obj 449 15 inlet;
#X obj 359 -4 loadbang;
#X obj 75 83 pix_image planets/earth.jpg;
#X msg 589 90 1;
#X msg 249 432 1;
#X floatatom 416 365 5 0 0 0 - - -;
#X obj 442 329 f;
#X msg 369 319 0;
#X obj 426 298 metro 10;
#X obj 490 329 + 1;
#X msg 274 236 -90;
#X obj 326 257 loadbang;
#X msg 263 292 180;
#X msg 493 112 5;
#X msg 534 112 2;
#X connect 0 0 12 0;
#X connect 1 0 31 0;
#X connect 1 0 38 0;
#X connect 3 0 6 0;
#X connect 4 0 3 1;
#X connect 5 0 3 2;
#X connect 6 0 9 0;
#X connect 7 0 6 1;
#X connect 8 0 6 2;
#X connect 9 0 2 0;
#X connect 10 0 9 1;
#X connect 11 0 9 2;
#X connect 12 0 3 0;
#X connect 13 0 12 1;
#X connect 14 0 12 2;
#X connect 15 0 12 3;
#X connect 16 0 25 1;
#X connect 17 0 39 0;
#X connect 17 0 50 0;
#X connect 17 0 49 0;
#X connect 17 0 33 0;
#X connect 18 0 13 0;
#X connect 18 1 15 0;
#X connect 19 0 18 0;
#X connect 20 0 19 0;
#X connect 20 0 23 0;
#X connect 21 0 22 0;
#X connect 21 0 24 0;
#X connect 21 0 43 0;
#X connect 21 0 44 0;
#X connect 22 0 20 0;
#X connect 23 0 20 1;
#X connect 24 0 20 0;
#X connect 25 0 26 0;
#X connect 26 0 2 1;
#X connect 27 0 16 0;
#X connect 27 0 40 0;
#X connect 28 0 18 1;
#X connect 29 0 18 2;
#X connect 30 0 21 0;
#X connect 31 0 30 0;
#X connect 31 0 32 0;
#X connect 32 0 34 0;
#X connect 33 0 34 0;
#X connect 34 0 31 1;
#X connect 35 0 21 0;
#X connect 36 0 35 0;
#X connect 36 0 33 0;
#X connect 37 0 33 0;
#X connect 38 0 0 0;
#X connect 39 0 28 1;
#X connect 39 0 29 1;
#X connect 40 0 25 0;
#X connect 41 0 10 0;
#X connect 42 0 41 0;
#X connect 42 0 45 0;
#X connect 43 0 42 0;
#X connect 44 0 42 0;
#X connect 45 0 42 1;
#X connect 46 0 4 0;
#X connect 47 0 46 0;
#X connect 47 0 48 0;
#X connect 47 0 5 0;
#X connect 47 0 8 0;
#X connect 47 0 11 0;
#X connect 48 0 7 0;
#X connect 49 0 28 0;
#X connect 50 0 29 0;
#X restore 544 384 pd pluto;
#N canvas 108 133 769 456 venus 0;
#X obj 76 127 pix_texture;
#X obj 46 -3 inlet;
#N canvas 461 46 450 300 makeSphere 0;
#X obj 69 247 sphere;
#X obj 125 160 translateXYZ;
#X floatatom 182 99 5 0 0 0 - - -;
#X floatatom 231 100 5 0 0 0 - - -;
#X floatatom 278 100 5 0 0 0 - - -;
#X floatatom 174 221 5 0 0 0 - - -;
#X msg 264 185 20;
#X obj 23 29 inlet;
#X obj 319 153 loadbang;
#X obj 391 80 inlet;
#X connect 1 0 0 0;
#X connect 2 0 1 1;
#X connect 3 0 1 2;
#X connect 4 0 1 3;
#X connect 5 0 0 2;
#X connect 6 0 5 0;
#X connect 7 0 1 0;
#X connect 8 0 6 0;
#X connect 9 0 0 1;
#X restore 81 508 pd makeSphere;
#X obj 80 306 rotate;
#X floatatom 202 251 5 0 0 0 - - -;
#X msg 200 284 1 0 0;
#X obj 80 368 rotate;
#X floatatom 204 325 5 0 0 0 - - -;
#X msg 200 359 0 1 0;
#X obj 80 417 rotate;
#X floatatom 195 394 5 0 0 0 - - -;
#X msg 195 417 0 0 1;
#X obj 77 175 translateXYZ;
#X floatatom 220 134 5 0 0 0 - - -;
#X floatatom 222 164 5 0 0 0 - - -;
#X floatatom 223 195 5 0 0 0 - - -;
#X msg 300 430 0.4;
#X obj 488 45 loadbang;
#N canvas 668 197 450 300 ellipse 0;
#X obj 66 44 inlet;
#X obj 77 209 outlet;
#X obj 169 211 outlet;
#X obj 180 45 inlet;
#X obj 125 46 inlet;
#X text 75 21 t:(0-2pi);
#X text 151 23 a;
#X text 197 23 b;
#X obj 83 155 *;
#X obj 56 83 cos;
#X obj 150 88 sin;
#X obj 173 133 *;
#X text 9 8 Implements ellipse coordinates using it paremetric equation
;
#X floatatom 7 177 5 0 0 0 - - -;
#X floatatom 207 169 5 0 0 0 - - -;
#X connect 0 0 9 0;
#X connect 0 0 10 0;
#X connect 3 0 11 1;
#X connect 4 0 8 1;
#X connect 8 0 1 0;
#X connect 8 0 13 0;
#X connect 9 0 8 0;
#X connect 10 0 11 0;
#X connect 11 0 2 0;
#X connect 11 0 14 0;
#X restore 472 218 pd ellipse;
#X floatatom 369 159 5 0 0 0 - - -;
#X obj 395 123 f;
#X obj 343 67 tgl 15 0 empty empty empty 17 7 0 10 -262144 -1 -1 1
1;
#X msg 322 113 0;
#X obj 443 123 + 0.01;
#X obj 379 92 metro 10;
#X obj 263 469 *;
#X floatatom 197 489 5 0 0 0 - - -;
#X obj 278 369 loadbang;
#X obj 490 144 *;
#X obj 533 145 *;
#X obj 232 57 trigger b;
#X obj 97 47 spigot;
#X msg 223 -2 0;
#X msg 271 2 1;
#X floatatom 196 21 5 0 0 0 - - -;
#X msg 384 47 0;
#X obj 449 15 inlet;
#X obj 359 -4 loadbang;
#X msg 249 432 1;
#X floatatom 416 365 5 0 0 0 - - -;
#X obj 442 329 f;
#X msg 369 319 0;
#X obj 426 298 metro 10;
#X obj 490 329 + 1;
#X msg 274 236 -90;
#X obj 326 257 loadbang;
#X msg 263 292 180;
#X obj 75 83 pix_image planets/venus.jpg;
#X msg 589 90 0.6;
#X msg 493 112 6;
#X msg 534 112 3;
#X connect 0 0 12 0;
#X connect 1 0 31 0;
#X connect 1 0 47 0;
#X connect 3 0 6 0;
#X connect 4 0 3 1;
#X connect 5 0 3 2;
#X connect 6 0 9 0;
#X connect 7 0 6 1;
#X connect 8 0 6 2;
#X connect 9 0 2 0;
#X connect 10 0 9 1;
#X connect 11 0 9 2;
#X connect 12 0 3 0;
#X connect 13 0 12 1;
#X connect 14 0 12 2;
#X connect 15 0 12 3;
#X connect 16 0 25 1;
#X connect 17 0 48 0;
#X connect 17 0 50 0;
#X connect 17 0 49 0;
#X connect 17 0 33 0;
#X connect 18 0 13 0;
#X connect 18 1 15 0;
#X connect 19 0 18 0;
#X connect 20 0 19 0;
#X connect 20 0 23 0;
#X connect 21 0 22 0;
#X connect 21 0 24 0;
#X connect 21 0 41 0;
#X connect 21 0 42 0;
#X connect 22 0 20 0;
#X connect 23 0 20 1;
#X connect 24 0 20 0;
#X connect 25 0 26 0;
#X connect 26 0 2 1;
#X connect 27 0 16 0;
#X connect 27 0 38 0;
#X connect 28 0 18 1;
#X connect 29 0 18 2;
#X connect 30 0 21 0;
#X connect 31 0 30 0;
#X connect 31 0 32 0;
#X connect 32 0 34 0;
#X connect 33 0 34 0;
#X connect 34 0 31 1;
#X connect 35 0 21 0;
#X connect 36 0 35 0;
#X connect 36 0 33 0;
#X connect 37 0 33 0;
#X connect 38 0 25 0;
#X connect 39 0 10 0;
#X connect 40 0 39 0;
#X connect 40 0 43 0;
#X connect 41 0 40 0;
#X connect 42 0 40 0;
#X connect 43 0 40 1;
#X connect 44 0 4 0;
#X connect 45 0 44 0;
#X connect 45 0 46 0;
#X connect 45 0 5 0;
#X connect 45 0 8 0;
#X connect 45 0 11 0;
#X connect 46 0 7 0;
#X connect 47 0 0 0;
#X connect 48 0 28 1;
#X connect 48 0 29 1;
#X connect 49 0 28 0;
#X connect 50 0 29 0;
#X restore 689 306 pd venus;
#N canvas 52 90 769 456 mercury 0;
#X obj 76 127 pix_texture;
#X obj 46 -3 inlet;
#N canvas 461 46 450 300 makeSphere 0;
#X obj 69 247 sphere;
#X obj 125 160 translateXYZ;
#X floatatom 182 99 5 0 0 0 - - -;
#X floatatom 231 100 5 0 0 0 - - -;
#X floatatom 278 100 5 0 0 0 - - -;
#X floatatom 174 221 5 0 0 0 - - -;
#X msg 264 185 20;
#X obj 23 29 inlet;
#X obj 319 153 loadbang;
#X obj 391 80 inlet;
#X connect 1 0 0 0;
#X connect 2 0 1 1;
#X connect 3 0 1 2;
#X connect 4 0 1 3;
#X connect 5 0 0 2;
#X connect 6 0 5 0;
#X connect 7 0 1 0;
#X connect 8 0 6 0;
#X connect 9 0 0 1;
#X restore 81 508 pd makeSphere;
#X obj 80 306 rotate;
#X floatatom 202 251 5 0 0 0 - - -;
#X msg 200 284 1 0 0;
#X obj 80 368 rotate;
#X floatatom 204 325 5 0 0 0 - - -;
#X msg 200 359 0 1 0;
#X obj 80 417 rotate;
#X floatatom 195 394 5 0 0 0 - - -;
#X msg 195 417 0 0 1;
#X obj 77 175 translateXYZ;
#X floatatom 220 134 5 0 0 0 - - -;
#X floatatom 222 164 5 0 0 0 - - -;
#X floatatom 223 195 5 0 0 0 - - -;
#X msg 300 430 0.4;
#X obj 488 45 loadbang;
#N canvas 668 197 450 300 ellipse 0;
#X obj 66 44 inlet;
#X obj 77 209 outlet;
#X obj 169 211 outlet;
#X obj 180 45 inlet;
#X obj 125 46 inlet;
#X text 75 21 t:(0-2pi);
#X text 151 23 a;
#X text 197 23 b;
#X obj 83 155 *;
#X obj 56 83 cos;
#X obj 150 88 sin;
#X obj 173 133 *;
#X text 9 8 Implements ellipse coordinates using it paremetric equation
;
#X floatatom 7 177 5 0 0 0 - - -;
#X floatatom 207 169 5 0 0 0 - - -;
#X connect 0 0 9 0;
#X connect 0 0 10 0;
#X connect 3 0 11 1;
#X connect 4 0 8 1;
#X connect 8 0 1 0;
#X connect 8 0 13 0;
#X connect 9 0 8 0;
#X connect 10 0 11 0;
#X connect 11 0 2 0;
#X connect 11 0 14 0;
#X restore 472 218 pd ellipse;
#X floatatom 369 159 5 0 0 0 - - -;
#X obj 395 123 f;
#X obj 343 67 tgl 15 0 empty empty empty 17 7 0 10 -262144 -1 -1 1
1;
#X msg 322 113 0;
#X obj 443 123 + 0.01;
#X obj 379 92 metro 10;
#X obj 263 469 *;
#X floatatom 197 489 5 0 0 0 - - -;
#X obj 278 369 loadbang;
#X obj 490 144 *;
#X obj 533 145 *;
#X obj 232 57 trigger b;
#X obj 97 47 spigot;
#X msg 223 -2 0;
#X msg 271 2 1;
#X floatatom 196 21 5 0 0 0 - - -;
#X msg 384 47 0;
#X obj 449 15 inlet;
#X obj 359 -4 loadbang;
#X floatatom 416 365 5 0 0 0 - - -;
#X obj 442 329 f;
#X msg 369 319 0;
#X obj 426 298 metro 10;
#X obj 490 329 + 1;
#X msg 274 236 -90;
#X obj 326 257 loadbang;
#X msg 263 292 180;
#X obj 75 83 pix_image planets/mercury.jpg;
#X msg 249 432 0.3;
#X msg 493 112 6;
#X msg 534 112 3;
#X msg 589 90 0.3;
#X connect 0 0 12 0;
#X connect 1 0 31 0;
#X connect 1 0 46 0;
#X connect 3 0 6 0;
#X connect 4 0 3 1;
#X connect 5 0 3 2;
#X connect 6 0 9 0;
#X connect 7 0 6 1;
#X connect 8 0 6 2;
#X connect 9 0 2 0;
#X connect 10 0 9 1;
#X connect 11 0 9 2;
#X connect 12 0 3 0;
#X connect 13 0 12 1;
#X connect 14 0 12 2;
#X connect 15 0 12 3;
#X connect 16 0 25 1;
#X connect 17 0 50 0;
#X connect 17 0 49 0;
#X connect 17 0 48 0;
#X connect 17 0 33 0;
#X connect 18 0 13 0;
#X connect 18 1 15 0;
#X connect 19 0 18 0;
#X connect 20 0 19 0;
#X connect 20 0 23 0;
#X connect 21 0 22 0;
#X connect 21 0 24 0;
#X connect 21 0 40 0;
#X connect 21 0 41 0;
#X connect 22 0 20 0;
#X connect 23 0 20 1;
#X connect 24 0 20 0;
#X connect 25 0 26 0;
#X connect 26 0 2 1;
#X connect 27 0 16 0;
#X connect 27 0 47 0;
#X connect 28 0 18 1;
#X connect 29 0 18 2;
#X connect 30 0 21 0;
#X connect 31 0 30 0;
#X connect 31 0 32 0;
#X connect 32 0 34 0;
#X connect 33 0 34 0;
#X connect 34 0 31 1;
#X connect 35 0 21 0;
#X connect 36 0 35 0;
#X connect 36 0 33 0;
#X connect 37 0 33 0;
#X connect 38 0 10 0;
#X connect 39 0 38 0;
#X connect 39 0 42 0;
#X connect 40 0 39 0;
#X connect 41 0 39 0;
#X connect 42 0 39 1;
#X connect 43 0 4 0;
#X connect 44 0 43 0;
#X connect 44 0 45 0;
#X connect 44 0 5 0;
#X connect 44 0 8 0;
#X connect 44 0 11 0;
#X connect 45 0 7 0;
#X connect 46 0 0 0;
#X connect 47 0 25 0;
#X connect 48 0 28 0;
#X connect 49 0 29 0;
#X connect 50 0 28 1;
#X connect 50 0 29 1;
#X restore 937 350 pd mercury;
#X obj 651 258 translate;
#X obj 689 225 r vect;
#X obj 648 205 r scal;
#X obj 759 208 bng 15 250 50 0 empty empty empty 17 7 0 10 -262144
-1 -1;
#X obj 577 204 gemhead;
#X obj 342 144 tgl 15 0 empty empty empty 17 7 0 10 -262144 -1 -1 0
206;
#X obj 881 259 translate;
#X obj 922 224 r vect;
#X obj 881 204 r scal;
#X obj 992 207 bng 15 250 50 0 empty empty empty 17 7 0 10 -262144
-1 -1;
#X obj 810 203 gemhead;
#X obj 400 142 tgl 15 0 empty empty empty 17 7 0 10 -262144 -1 -1 0
206;
#X obj 1069 208 translate;
#X obj 1110 173 r vect;
#X obj 1069 153 r scal;
#X obj 1180 156 bng 15 250 50 0 empty empty empty 17 7 0 10 -262144
-1 -1;
#X obj 998 152 gemhead;
#X obj 455 122 tgl 15 0 empty empty empty 17 7 0 10 -262144 -1 -1 0
206;
#N canvas 170 165 769 456 jupiter 0;
#X obj 76 127 pix_texture;
#X obj 46 -3 inlet;
#N canvas 461 46 450 300 makeSphere 0;
#X obj 69 247 sphere;
#X obj 125 160 translateXYZ;
#X floatatom 182 99 5 0 0 0 - - -;
#X floatatom 231 100 5 0 0 0 - - -;
#X floatatom 278 100 5 0 0 0 - - -;
#X floatatom 174 221 5 0 0 0 - - -;
#X msg 264 185 20;
#X obj 23 29 inlet;
#X obj 319 153 loadbang;
#X obj 391 80 inlet;
#X connect 1 0 0 0;
#X connect 2 0 1 1;
#X connect 3 0 1 2;
#X connect 4 0 1 3;
#X connect 5 0 0 2;
#X connect 6 0 5 0;
#X connect 7 0 1 0;
#X connect 8 0 6 0;
#X connect 9 0 0 1;
#X restore 81 508 pd makeSphere;
#X obj 80 306 rotate;
#X floatatom 202 251 5 0 0 0 - - -;
#X msg 200 284 1 0 0;
#X obj 80 368 rotate;
#X floatatom 204 325 5 0 0 0 - - -;
#X msg 200 359 0 1 0;
#X obj 80 417 rotate;
#X floatatom 195 394 5 0 0 0 - - -;
#X msg 195 417 0 0 1;
#X obj 77 175 translateXYZ;
#X floatatom 220 134 5 0 0 0 - - -;
#X floatatom 222 164 5 0 0 0 - - -;
#X floatatom 223 195 5 0 0 0 - - -;
#X msg 300 430 0.4;
#X obj 488 45 loadbang;
#N canvas 668 197 450 300 ellipse 0;
#X obj 66 44 inlet;
#X obj 77 209 outlet;
#X obj 169 211 outlet;
#X obj 180 45 inlet;
#X obj 125 46 inlet;
#X text 75 21 t:(0-2pi);
#X text 151 23 a;
#X text 197 23 b;
#X obj 83 155 *;
#X obj 56 83 cos;
#X obj 150 88 sin;
#X obj 173 133 *;
#X text 9 8 Implements ellipse coordinates using it paremetric equation
;
#X floatatom 7 177 5 0 0 0 - - -;
#X floatatom 207 169 5 0 0 0 - - -;
#X connect 0 0 9 0;
#X connect 0 0 10 0;
#X connect 3 0 11 1;
#X connect 4 0 8 1;
#X connect 8 0 1 0;
#X connect 8 0 13 0;
#X connect 9 0 8 0;
#X connect 10 0 11 0;
#X connect 11 0 2 0;
#X connect 11 0 14 0;
#X restore 472 218 pd ellipse;
#X floatatom 369 159 5 0 0 0 - - -;
#X obj 395 123 f;
#X obj 343 67 tgl 15 0 empty empty empty 17 7 0 10 -262144 -1 -1 1
1;
#X msg 322 113 0;
#X obj 443 123 + 0.01;
#X obj 379 92 metro 10;
#X obj 263 469 *;
#X floatatom 197 489 5 0 0 0 - - -;
#X obj 278 369 loadbang;
#X obj 490 144 *;
#X obj 533 145 *;
#X obj 232 57 trigger b;
#X obj 97 47 spigot;
#X msg 223 -2 0;
#X msg 271 2 1;
#X floatatom 196 21 5 0 0 0 - - -;
#X msg 384 47 0;
#X obj 449 15 inlet;
#X obj 359 -4 loadbang;
#X floatatom 416 365 5 0 0 0 - - -;
#X obj 442 329 f;
#X msg 369 319 0;
#X obj 426 298 metro 10;
#X obj 490 329 + 1;
#X msg 274 236 -90;
#X obj 326 257 loadbang;
#X msg 263 292 180;
#X msg 493 112 6;
#X msg 534 112 3;
#X msg 249 432 4;
#X obj 75 82 pix_image planets/jupiter.jpg;
#X msg 589 90 1.8;
#X connect 0 0 12 0;
#X connect 1 0 31 0;
#X connect 1 0 49 0;
#X connect 3 0 6 0;
#X connect 4 0 3 1;
#X connect 5 0 3 2;
#X connect 6 0 9 0;
#X connect 7 0 6 1;
#X connect 8 0 6 2;
#X connect 9 0 2 0;
#X connect 10 0 9 1;
#X connect 11 0 9 2;
#X connect 12 0 3 0;
#X connect 13 0 12 1;
#X connect 14 0 12 2;
#X connect 15 0 12 3;
#X connect 16 0 25 1;
#X connect 17 0 50 0;
#X connect 17 0 47 0;
#X connect 17 0 46 0;
#X connect 17 0 33 0;
#X connect 18 0 13 0;
#X connect 18 1 15 0;
#X connect 19 0 18 0;
#X connect 20 0 19 0;
#X connect 20 0 23 0;
#X connect 21 0 22 0;
#X connect 21 0 24 0;
#X connect 21 0 40 0;
#X connect 21 0 41 0;
#X connect 22 0 20 0;
#X connect 23 0 20 1;
#X connect 24 0 20 0;
#X connect 25 0 26 0;
#X connect 26 0 2 1;
#X connect 27 0 16 0;
#X connect 27 0 48 0;
#X connect 28 0 18 1;
#X connect 29 0 18 2;
#X connect 30 0 21 0;
#X connect 31 0 30 0;
#X connect 31 0 32 0;
#X connect 32 0 34 0;
#X connect 33 0 34 0;
#X connect 34 0 31 1;
#X connect 35 0 21 0;
#X connect 36 0 35 0;
#X connect 36 0 33 0;
#X connect 37 0 33 0;
#X connect 38 0 10 0;
#X connect 39 0 38 0;
#X connect 39 0 42 0;
#X connect 40 0 39 0;
#X connect 41 0 39 0;
#X connect 42 0 39 1;
#X connect 43 0 4 0;
#X connect 44 0 43 0;
#X connect 44 0 45 0;
#X connect 44 0 5 0;
#X connect 44 0 8 0;
#X connect 44 0 11 0;
#X connect 45 0 7 0;
#X connect 46 0 28 0;
#X connect 47 0 29 0;
#X connect 48 0 25 0;
#X connect 49 0 0 0;
#X connect 50 0 28 1;
#X connect 50 0 29 1;
#X restore 1107 353 pd jupiter;
#X msg 24 248 0 0 -5;
#X obj 640 -224 bng 15 250 50 0 empty empty empty 0 -6 0 8 -262144
-1 -1;
#X obj 577 -257 TuioClient;
#X obj 577 -187 route addObject removeObject updateObject;
#X obj 577 -149 unpack \$1 \$2;
#X obj 671 -149 unpack \$1 \$2;
#X obj 765 -147 unpack \$1 \$2 \$3 \$4 \$5;
#X obj 553 -118 print addObject;
#X obj 659 -117 print removeObject;
#X text 590 -276 comment;
#X text 587 -226 comment;
#X msg 508 -21 0;
#X connect 1 0 0 0;
#X connect 2 0 0 0;
#X connect 3 0 0 0;
#X connect 4 0 0 0;
#X connect 5 0 15 0;
#X connect 6 0 7 0;
#X connect 6 0 1 0;
#X connect 6 0 3 0;
#X connect 7 0 0 0;
#X connect 9 0 13 0;
#X connect 11 0 14 0;
#X connect 12 0 11 0;
#X connect 12 0 5 0;
#X connect 12 0 9 0;
#X connect 12 0 43 0;
#X connect 12 0 49 0;
#X connect 12 0 55 0;
#X connect 13 0 16 0;
#X connect 14 0 23 0;
#X connect 15 0 24 0;
#X connect 16 0 8 0;
#X connect 17 0 57 0;
#X connect 17 0 18 0;
#X connect 18 0 20 0;
#X connect 21 0 16 2;
#X connect 22 0 23 2;
#X connect 23 0 10 0;
#X connect 24 0 32 0;
#X connect 25 0 24 2;
#X connect 26 0 16 1;
#X connect 27 0 23 1;
#X connect 28 0 24 1;
#X connect 29 0 10 1;
#X connect 30 0 32 1;
#X connect 31 0 30 0;
#X connect 31 0 29 0;
#X connect 31 0 41 0;
#X connect 31 0 47 0;
#X connect 31 0 53 0;
#X connect 33 0 34 0;
#X connect 33 0 31 0;
#X connect 34 0 12 0;
#X connect 38 0 36 0;
#X connect 39 0 38 2;
#X connect 40 0 38 1;
#X connect 41 0 36 1;
#X connect 42 0 38 0;
#X connect 43 0 42 0;
#X connect 44 0 37 0;
#X connect 45 0 44 2;
#X connect 46 0 44 1;
#X connect 47 0 37 1;
#X connect 48 0 44 0;
#X connect 49 0 48 0;
#X connect 50 0 56 0;
#X connect 51 0 50 2;
#X connect 52 0 50 1;
#X connect 53 0 56 1;
#X connect 54 0 50 0;
#X connect 55 0 54 0;
#X connect 57 0 19 0;
#X connect 59 0 60 0;
#X connect 59 1 58 0;
#X connect 60 0 61 0;
#X connect 60 1 62 0;
#X connect 60 2 63 0;
#X connect 61 1 64 0;
#X connect 61 1 12 0;
#X connect 62 1 65 0;
#X connect 62 1 68 0;
#X connect 68 0 12 0;
